<svg xmlns="http://www.w3.org/2000/svg" xmlns:xlink="http://www.w3.org/1999/xlink" viewBox="0 0 242.27 243.69"><defs><style>.cls-1{isolation:isolate;}.cls-2{fill:url(#radial-gradient);}.cls-3{fill:url(#radial-gradient-2);}.cls-4{fill:url(#radial-gradient-3);}.cls-5{fill:url(#radial-gradient-4);}.cls-6{fill:url(#radial-gradient-5);}.cls-7{fill:url(#radial-gradient-6);}.cls-8{fill:url(#radial-gradient-7);}.cls-9{fill:url(#radial-gradient-9);}.cls-10{fill:url(#radial-gradient-10);}.cls-11{fill:url(#radial-gradient-11);}.cls-12{fill:url(#radial-gradient-12);}.cls-13{fill:url(#radial-gradient-13);}.cls-14{fill:url(#radial-gradient-14);}.cls-15{fill:url(#radial-gradient-15);}.cls-16{fill:url(#radial-gradient-16);}.cls-17{fill:url(#radial-gradient-17);}.cls-18{fill:url(#radial-gradient-18);}.cls-19{fill:url(#radial-gradient-19);}.cls-20{fill:url(#radial-gradient-20);}.cls-21{fill:url(#radial-gradient-21);}.cls-22{fill:url(#radial-gradient-22);}.cls-23{fill:url(#radial-gradient-24);}.cls-24{fill:url(#radial-gradient-25);}.cls-25{fill:#4d2e00;mix-blend-mode:color-dodge;}.cls-26{fill:#eb1000;}</style><radialGradient id="radial-gradient" cx="265.86" cy="91.73" r="91.41" gradientUnits="userSpaceOnUse"><stop offset="0.37" stop-color="#f20f00"/><stop offset="0.58" stop-color="#c11a00"/><stop offset="0.68" stop-color="#a91f00"/><stop offset="0.97" stop-color="#f20f00"/></radialGradient><radialGradient id="radial-gradient-2" cx="265.86" cy="91.73" r="91.41" xlink:href="#radial-gradient"/><radialGradient id="radial-gradient-3" cx="265.86" cy="91.73" r="91.41" xlink:href="#radial-gradient"/><radialGradient id="radial-gradient-4" cx="265.86" cy="91.73" r="91.41" xlink:href="#radial-gradient"/><radialGradient id="radial-gradient-5" cx="265.86" cy="91.73" r="91.41" xlink:href="#radial-gradient"/><radialGradient id="radial-gradient-6" cx="265.86" cy="91.73" r="91.41" xlink:href="#radial-gradient"/><radialGradient id="radial-gradient-7" cx="265.86" cy="91.73" r="91.41" xlink:href="#radial-gradient"/><radialGradient id="radial-gradient-9" cx="265.86" cy="91.73" r="91.41" xlink:href="#radial-gradient"/><radialGradient id="radial-gradient-10" cx="265.86" cy="91.73" r="91.41" xlink:href="#radial-gradient"/><radialGradient id="radial-gradient-11" cx="265.86" cy="91.73" r="91.41" xlink:href="#radial-gradient"/><radialGradient id="radial-gradient-12" cx="265.86" cy="91.73" r="91.41" xlink:href="#radial-gradient"/><radialGradient id="radial-gradient-13" cx="265.86" cy="91.73" r="91.41" xlink:href="#radial-gradient"/><radialGradient id="radial-gradient-14" cx="265.86" cy="91.73" r="91.41" xlink:href="#radial-gradient"/><radialGradient id="radial-gradient-15" cx="265.86" cy="91.73" r="91.41" xlink:href="#radial-gradient"/><radialGradient id="radial-gradient-16" cx="265.86" cy="91.73" r="91.41" xlink:href="#radial-gradient"/><radialGradient id="radial-gradient-17" cx="265.86" cy="91.73" r="91.41" xlink:href="#radial-gradient"/><radialGradient id="radial-gradient-18" cx="265.86" cy="91.73" r="91.41" xlink:href="#radial-gradient"/><radialGradient id="radial-gradient-19" cx="265.86" cy="91.73" r="91.41" xlink:href="#radial-gradient"/><radialGradient id="radial-gradient-20" cx="265.86" cy="91.73" r="91.41" xlink:href="#radial-gradient"/><radialGradient id="radial-gradient-21" cx="265.86" cy="91.73" r="91.41" xlink:href="#radial-gradient"/><radialGradient id="radial-gradient-22" cx="265.86" cy="91.73" r="91.41" xlink:href="#radial-gradient"/><radialGradient id="radial-gradient-24" cx="265.86" cy="91.73" r="91.41" xlink:href="#radial-gradient"/><radialGradient id="radial-gradient-25" cx="265.86" cy="91.73" r="91.41" xlink:href="#radial-gradient"/></defs><g class="cls-1"><g id="Layer_1" data-name="Layer 1"><path class="cls-2" d="M362.7,99.66V96.19c-21.48,0-17,0-18.64-9,6.65-4.32,12-6.48,28.38-10.87l-1.37-5.13c-32.95,8.83-29.22,5.78-32.7-1.08,2.88-2.78,6.33-5.12,14.13-9.63l-1.74-3C343,61.91,339.48,64,335.53,65.06c-3.92-6.22-9.85-5.17,14.42-29.45l-3.75-3.75c-24.39,24.38-21.44,19.27-29.88,13.9,1.1-3.84,2.92-7.59,7.4-15.36l-3-1.74c-10.34,17.91-8,14.28-16.19,11.26-.31-7.5.59-13.37,4.82-29.17l-5.13-1.37c-8.75,32.66-8.8,27.3-17.8,26.84C285.3,32.12,285,28,285,18.46h-3.47c0,9.54.08,13.56-1.22,17.76-7.58.35-9.67,6.23-18.7-27.5l-5.13,1.37c4.38,16.35,6,21.68,5,30a61.5,61.5,0,0,0-6,2.67c-2.79-2.88-5.13-6.33-9.63-14.13l-3,1.74c4.48,7.76,6.58,11.27,7.63,15.22-6.25,3.93-5.18,9.84-29.45-14.42L217.16,35c28.42,28.41,19.69,34.68-1.46,22.47l-1.74,3c7.79,4.5,11.36,6.48,14.25,9.39-3.24,6.32.57,10.75-32.16,2l-1.37,5.13c15.73,4.21,21.34,5.56,27.73,10.16a61.78,61.78,0,0,0-.89,7.64c-4.1,1.12-8.2,1.46-17.76,1.46v3.47c9.54,0,13.56-.07,17.75,1.22.36,7.62,6.23,9.66-27.49,18.7l1.37,5.13c33-8.83,29.22-5.77,32.7,1.08-2.88,2.79-6.33,5.13-14.13,9.63l1.74,3c7.76-4.48,11.27-6.58,15.22-7.63,3.93,6.25,9.84,5.18-14.42,29.45l3.75,3.75c24.24-24.23,21.4-19.29,29.88-13.9-1.1,3.84-2.92,7.59-7.4,15.36l3,1.74c4.5-7.79,6.48-11.36,9.39-14.25,6.31,3.23,10.75-.58,2,32.16l5.13,1.37c4.21-15.72,5.56-21.34,10.16-27.73,8.23,1.46,9.1-2.69,9.1,18.66H285c0-21.5,0-17.05,9.05-18.65,4.33,6.65,6.48,12,10.87,28.38l5.13-1.37c-4.38-16.35-6-21.68-5-30,6.73-2.54,5.46-6.22,15.67,11.46l3-1.74c-10.34-17.9-8.43-13.92-1.36-19.72,6.83,3.52,11.43,7.18,23.18,18.92l3.75-3.75c-24.24-24.24-19.3-21.4-13.9-29.88,3.84,1.1,7.59,2.92,15.36,7.4l1.74-3c-7.79-4.5-11.37-6.48-14.25-9.39,3.23-6.31-.59-10.75,32.16-2l1.37-5.13c-15.73-4.21-21.34-5.56-27.73-10.16C345.5,100.52,341.35,99.67,362.7,99.66Z" transform="translate(-166.96 -2.57)"/><path class="cls-3" d="M314.25,12.55c-.84,3.24-5.3,4.89-9.95,3.68s-7.76-4.81-6.92-8,5.3-4.89,10-3.68S315.09,9.31,314.25,12.55Z" transform="translate(-166.96 -2.57)"/><path class="cls-4" d="M354.05,39.75c-2.16,2.56-6.89,2.11-10.56-1s-4.9-7.7-2.74-10.25,6.89-2.11,10.57,1S356.21,37.2,354.05,39.75Z" transform="translate(-166.96 -2.57)"/><path class="cls-5" d="M372.69,82.21c-3.3.58-6.65-2.78-7.49-7.52s1.15-9,4.44-9.64,6.65,2.79,7.49,7.52S376,81.63,372.69,82.21Z" transform="translate(-166.96 -2.57)"/><path class="cls-6" d="M367.66,129.67c-3.16-1.12-4.41-5.7-2.8-10.24s5.47-7.3,8.62-6.18,4.41,5.7,2.8,10.23S370.81,130.78,367.66,129.67Z" transform="translate(-166.96 -2.57)"/><path class="cls-7" d="M341.14,169c-2.34-2.4-1.43-7.06,2-10.41s8.14-4.11,10.47-1.71,1.42,7.06-2,10.41S343.46,171.37,341.14,169Z" transform="translate(-166.96 -2.57)"/><path class="cls-8" d="M298.17,187.07c-.66-3.28,2.62-6.71,7.33-7.66s9.08.93,9.74,4.21-2.62,6.71-7.33,7.67S298.83,190.35,298.17,187.07Z" transform="translate(-166.96 -2.57)"/><path class="cls-2" d="M250.67,183.16c.72-3.27,5.11-5.09,9.81-4.06s7.92,4.52,7.21,7.79-5.11,5.08-9.81,4.05S250,186.43,250.67,183.16Z" transform="translate(-166.96 -2.57)"/><path class="cls-9" d="M211.73,158.07c1.8-2.83,6.54-3,10.6-.44s5.89,7,4.1,9.79-6.55,3-10.61.44S209.93,160.89,211.73,158.07Z" transform="translate(-166.96 -2.57)"/><path class="cls-10" d="M191.31,114.51c3.12-1.2,7.05,1.47,8.78,6s.58,9.1-2.55,10.3-7-1.48-8.77-6S188.18,115.71,191.31,114.51Z" transform="translate(-166.96 -2.57)"/><path class="cls-11" d="M197.07,66.39c3.25.82,4.92,5.26,3.75,9.93s-4.76,7.78-8,7-4.93-5.26-3.75-9.93S193.82,65.57,197.07,66.39Z" transform="translate(-166.96 -2.57)"/><path class="cls-12" d="M224.82,26.66c2.41,2.33,1.67,7-1.67,10.48s-8,4.39-10.41,2.07-1.66-7,1.68-10.48S222.41,24.34,224.82,26.66Z" transform="translate(-166.96 -2.57)"/><path class="cls-13" d="M267.25,6.46c.93,3.21-2.06,6.9-6.68,8.24s-9.12-.19-10.06-3.4,2.07-6.91,6.69-8.25S266.32,3.24,267.25,6.46Z" transform="translate(-166.96 -2.57)"/><path class="cls-14" d="M289,18.13c.1,2.29-2.48,4.24-5.76,4.38s-6-1.6-6.12-3.88,2.49-4.24,5.77-4.38S288.88,15.85,289,18.13Z" transform="translate(-166.96 -2.57)"/><path class="cls-15" d="M327.58,32.5c-1,2-4.21,2.53-7.15,1.08s-4.52-4.29-3.51-6.34,4.22-2.53,7.16-1.08S328.59,30.45,327.58,32.5Z" transform="translate(-166.96 -2.57)"/><path class="cls-16" d="M353.8,64.45c-1.9,1.28-4.91.1-6.75-2.62s-1.78-6,.12-7.24,4.91-.1,6.75,2.62S355.7,63.18,353.8,64.45Z" transform="translate(-166.96 -2.57)"/><path class="cls-17" d="M362.14,103.93c-2.28,0-4.08-2.74-4-6s2-5.9,4.25-5.86,4.08,2.74,4,6S364.43,104,362.14,103.93Z" transform="translate(-166.96 -2.57)"/><path class="cls-18" d="M347.75,141.43c-1.89-1.29-1.92-4.53-.07-7.24s4.89-3.86,6.77-2.57,1.91,4.53.06,7.24S349.63,142.72,347.75,141.43Z" transform="translate(-166.96 -2.57)"/><path class="cls-19" d="M316.7,169c-1.26-1.91-.06-4.92,2.68-6.73s6-1.74,7.23.16.06,4.92-2.67,6.74S318,170.9,316.7,169Z" transform="translate(-166.96 -2.57)"/><path class="cls-20" d="M277.36,177.86c-.33-2.27,2-4.48,5.29-5s6.14,1,6.47,3.24-2,4.47-5.29,4.95S277.69,180.12,277.36,177.86Z" transform="translate(-166.96 -2.57)"/><path class="cls-21" d="M239.36,163.75c1.07-2,4.28-2.43,7.19-.9s4.4,4.4,3.33,6.42-4.28,2.42-7.18.9S238.3,165.77,239.36,163.75Z" transform="translate(-166.96 -2.57)"/><path class="cls-22" d="M211.27,132.85c1.67-1.55,4.84-.87,7.08,1.53s2.69,5.61,1,7.17-4.84.87-7.08-1.53S209.6,134.41,211.27,132.85Z" transform="translate(-166.96 -2.57)"/><path class="cls-15" d="M203.51,91.85c2.28,0,4.19,2.57,4.26,5.86s-1.73,6-4,6-4.19-2.57-4.26-5.85S201.23,91.9,203.51,91.85Z" transform="translate(-166.96 -2.57)"/><path class="cls-23" d="M217.14,53.39c2.15.78,3,3.91,1.87,7s-3.76,5-5.91,4.17-3-3.91-1.87-7S215,52.61,217.14,53.39Z" transform="translate(-166.96 -2.57)"/><path class="cls-24" d="M248.71,26.29c1.31,1.88.17,4.91-2.53,6.78s-5.93,1.86-7.24,0-.15-4.91,2.54-6.78S247.42,24.41,248.71,26.29Z" transform="translate(-166.96 -2.57)"/><path class="cls-25" d="M303.67,148.17c0,3.77-7.69,6.83-17.17,6.83s-17.17-3.06-17.17-6.83,7.69-6.83,17.17-6.83S303.67,144.4,303.67,148.17Z" transform="translate(-166.96 -2.57)"/><path class="cls-25" d="M288.09,49.54c0,3.16-6.43,5.72-14.36,5.72s-14.36-2.56-14.36-5.72,6.43-5.71,14.36-5.71S288.09,46.38,288.09,49.54Z" transform="translate(-166.96 -2.57)"/><path class="cls-25" d="M254.09,135.75c-3,2.35-10.13-1.76-16-9.18s-8.29-15.34-5.34-17.69,10.13,1.76,16,9.18S257.05,133.4,254.09,135.75Z" transform="translate(-166.96 -2.57)"/><path class="cls-25" d="M328.76,108.35c3.71,1.79,3.87,9.11.36,16.36s-9.34,11.68-13,9.9-3.86-9.12-.36-16.37S325.06,106.56,328.76,108.35Z" transform="translate(-166.96 -2.57)"/><path class="cls-25" d="M246.73,60.15c3.71,1.79,3.87,9.12.36,16.37s-9.34,11.68-13,9.89-3.87-9.12-.36-16.37S243,58.36,246.73,60.15Z" transform="translate(-166.96 -2.57)"/><path class="cls-25" d="M327.92,70.18c2.64-.57,5.67,3.17,6.77,8.35s-.15,9.82-2.79,10.38-5.68-3.18-6.78-8.35S325.27,70.74,327.92,70.18Z" transform="translate(-166.96 -2.57)"/><path class="cls-25" d="M302.07,49.16c2-1.82,6.51-.12,10.07,3.79S317,61.51,315,63.33s-6.51.12-10.07-3.8S300.08,51,302.07,49.16Z" transform="translate(-166.96 -2.57)"/><circle class="cls-25" cx="264.79" cy="90.72" r="8.3" transform="translate(-181.52 105.67) rotate(-22.5)"/><circle class="cls-25" cx="290.97" cy="71.25" r="7.66" transform="translate(-12.18 335.49) rotate(-76.72)"/><path class="cls-25" d="M314.59,92.31a5.11,5.11,0,1,1-5.11-5.1A5.11,5.11,0,0,1,314.59,92.31Z" transform="translate(-166.96 -2.57)"/><path class="cls-25" d="M296.39,113.06a4.79,4.79,0,1,1-4.79-4.79A4.79,4.79,0,0,1,296.39,113.06Z" transform="translate(-166.96 -2.57)"/><path class="cls-25" d="M272.45,118.17a7,7,0,1,1-7-7A7,7,0,0,1,272.45,118.17Z" transform="translate(-166.96 -2.57)"/><path class="cls-25" d="M302.46,126.78a5.11,5.11,0,1,1-5.11-5.1A5.11,5.11,0,0,1,302.46,126.78Z" transform="translate(-166.96 -2.57)"/><path class="cls-25" d="M265.75,70a2.88,2.88,0,1,1-2.87-2.87A2.87,2.87,0,0,1,265.75,70Z" transform="translate(-166.96 -2.57)"/><path class="cls-25" d="M256.81,99.33a4.47,4.47,0,1,1-4.47-4.46A4.47,4.47,0,0,1,256.81,99.33Z" transform="translate(-166.96 -2.57)"/><path class="cls-25" d="M292.24,95.5A4.47,4.47,0,1,1,287.77,91,4.47,4.47,0,0,1,292.24,95.5Z" transform="translate(-166.96 -2.57)"/><path class="cls-25" d="M319.37,72.84a6.7,6.7,0,1,1-6.7-6.7A6.7,6.7,0,0,1,319.37,72.84Z" transform="translate(-166.96 -2.57)"/><circle class="cls-25" cx="168.38" cy="102.51" r="2.87"/><circle class="cls-25" cx="86.98" cy="144" r="3.51"/><path class="cls-25" d="M233.83,97.74a3.51,3.51,0,1,1-3.51-3.51A3.51,3.51,0,0,1,233.83,97.74Z" transform="translate(-166.96 -2.57)"/><path class="cls-26" d="M195.14,235c-.07,8.55-3.12,11.23-12.75,11.23h-4.2c-7.54,0-11.23-3.34-11.23-10.36V208.65c0-8.25,3.4-11.73,11.23-11.73h4.2c9.34.07,12.68,2.24,12.75,8.26V214h-10.8v-6.31c0-1.45-.94-2.1-2.82-2.1-2,0-3,.65-3,2.1v27.82c0,1.38.94,2,2.9,2s2.89-.65,2.89-2v-7.6h10.8Z" transform="translate(-166.96 -2.57)"/><path class="cls-26" d="M200.86,206.84c0-7.17,4.06-9.92,14.49-9.92s14.49,2.75,14.49,9.92v29.49c0,7.17-4.05,9.93-14.56,9.93s-14.42-2.76-14.42-9.93Zm17.39.58c0-1.66-.72-2.24-2.9-2.24s-2.89.5-2.89,2.24v28.33c0,1.74.72,2.25,3,2.25,2.1,0,2.82-.58,2.82-2.25Z" transform="translate(-166.96 -2.57)"/><path class="cls-26" d="M234.26,197.43h11.45l4.42,42.45h.14l4.49-42.45h11.45l-6.52,48.32h-19Z" transform="translate(-166.96 -2.57)"/><path class="cls-26" d="M271.5,197.43h11.16v48.32H271.5Z" transform="translate(-166.96 -2.57)"/><path class="cls-26" d="M290.12,197.43h14.56c11.3,0,13.55,3,13.77,18.11v12.1c-.07,15-2.54,18.18-13.77,18.11H290.12Zm11.16,39.62h3c2.39,0,3-.86,3-4.63v-22c0-3.76-.58-4.71-3-4.71h-3Z" transform="translate(-166.96 -2.57)"/><path class="cls-26" d="M324.32,223.72h17.6v8.7h-17.6Z" transform="translate(-166.96 -2.57)"/><path class="cls-26" d="M355.76,197.43h14.13v48.32H358.73V205.68h-.14l-7.18,10.87-6-5.79Z" transform="translate(-166.96 -2.57)"/><path class="cls-26" d="M397.64,222.93c-1.74,2.82-3.05,3.47-7.1,3.47s-6.6-.72-8-2.24-2-4.42-2-10.72c0-14.64,1.59-16.52,14.34-16.52,11.45,0,14.35,2.1,14.35,10.29V230c0,7.68-1,11.67-3.34,13.84-2.1,1.81-5.28,2.47-12.09,2.47-10.65,0-12.83-1.53-12.83-8.84v-6.23h10.8V236c0,1.95.5,2.39,2.9,2.39s3.25-.65,3.25-2.68V222.93Zm-5.87-6.67c0,2,.72,2.68,3,2.68s3.26-.79,3.26-2.53v-9.35c0-1.74-.72-2.24-3.11-2.24s-3.19.43-3.19,2.24Z" transform="translate(-166.96 -2.57)"/></g></g></svg>