<?xml version="1.0" encoding="UTF-8" standalone="no"?>
<svg
   xmlns:dc="http://purl.org/dc/elements/1.1/"
   xmlns:cc="http://creativecommons.org/ns#"
   xmlns:rdf="http://www.w3.org/1999/02/22-rdf-syntax-ns#"
   xmlns:svg="http://www.w3.org/2000/svg"
   xmlns="http://www.w3.org/2000/svg"
   xmlns:sodipodi="http://sodipodi.sourceforge.net/DTD/sodipodi-0.dtd"
   xmlns:inkscape="http://www.inkscape.org/namespaces/inkscape"
   version="1.1"
   x="0px"
   y="0px"
   viewBox="0 0 104 104"
   enable-background="new 0 0 100 100"
   xml:space="preserve"
   id="svg12"
   sodipodi:docname="noun_70967_cc.svg"
   width="104"
   height="104"
   inkscape:version="0.92.2 5c3e80d, 2017-08-06"><metadata
     id="metadata18"><rdf:RDF><cc:Work
         rdf:about=""><dc:format>image/svg+xml</dc:format><dc:type
           rdf:resource="http://purl.org/dc/dcmitype/StillImage" /><dc:title></dc:title></cc:Work></rdf:RDF></metadata><defs
     id="defs16" /><sodipodi:namedview
     pagecolor="#ffffff"
     bordercolor="#666666"
     borderopacity="1"
     objecttolerance="10"
     gridtolerance="10"
     guidetolerance="10"
     inkscape:pageopacity="0"
     inkscape:pageshadow="2"
     inkscape:window-width="776"
     inkscape:window-height="555"
     id="namedview14"
     showgrid="false"
     fit-margin-top="10"
     fit-margin-left="10"
     fit-margin-right="10"
     fit-margin-bottom="10"
     inkscape:snap-global="true"
     inkscape:snap-bbox="true"
     inkscape:zoom="2.6700352"
     inkscape:cx="18.521986"
     inkscape:cy="60.884748"
     inkscape:window-x="0"
     inkscape:window-y="0"
     inkscape:window-maximized="0"
     inkscape:current-layer="svg12" /><path
     d="m 40.156,66.088 c 3.562,0 6.961,-1.333 9.573,-3.751 0.81,-0.75 0.858,-2.016 0.108,-2.826 -0.751,-0.811 -2.016,-0.859 -2.827,-0.108 -1.869,1.732 -4.304,2.686 -6.854,2.686 -5.563,0 -10.088,-4.526 -10.088,-10.088 0,-5.562 4.525,-10.088 10.088,-10.088 2.548,0 4.98,0.952 6.849,2.681 0.811,0.75 2.076,0.701 2.827,-0.11 0.75,-0.811 0.701,-2.076 -0.11,-2.826 -2.61,-2.415 -6.007,-3.745 -9.565,-3.745 -7.769,0 -14.088,6.32 -14.088,14.088 0,7.768 6.318,14.087 14.087,14.087 z"
     id="path2"
     inkscape:connector-curvature="0"
     style="fill:#000000" /><path
     d="m 67.156,66.088 c 3.562,0 6.961,-1.333 9.573,-3.751 0.81,-0.75 0.858,-2.016 0.108,-2.826 -0.751,-0.811 -2.016,-0.859 -2.827,-0.108 -1.869,1.732 -4.304,2.686 -6.854,2.686 -5.563,0 -10.088,-4.526 -10.088,-10.088 0,-5.562 4.525,-10.088 10.088,-10.088 2.548,0 4.98,0.952 6.849,2.681 0.811,0.75 2.076,0.701 2.827,-0.11 0.75,-0.811 0.701,-2.076 -0.11,-2.826 -2.61,-2.415 -6.007,-3.745 -9.565,-3.745 -7.769,0 -14.088,6.32 -14.088,14.088 0,7.768 6.318,14.087 14.087,14.087 z"
     id="path4"
     inkscape:connector-curvature="0"
     style="fill:#000000" /><path
     d="M 52,94 C 74.766,94 94,74.767 94,52 94,29.233 74.766,10 52,10 29.234,10 10,29.233 10,52 10,74.767 29.234,94 52,94 Z M 52,14 C 72.598,14 90,31.402 90,52 90,72.598 72.598,90 52,90 31.402,90 14,72.598 14,52 14,31.402 31.402,14 52,14 Z"
     id="path6"
     inkscape:connector-curvature="0"
     style="fill:#000000" /></svg>